<svg width="61" height="33" viewBox="0 0 61 33" fill="none" xmlns="http://www.w3.org/2000/svg">
<path d="M0 13.1835H8.30312V23.2775C8.30312 25.5393 13.9623 25.6152 15.2453 25.6152C16.5304 25.6152 23.7005 25.5373 23.7005 22.6723V0H54.4935C60.0043 0 60.9925 7.84754 60.9925 9.87061C60.9925 11.8007 60.0803 20.4183 54.9476 20.4183H51.7457L61 32.0467H50.6109L35.5602 13.1837H51.1727C52.9822 13.1837 53.0621 10.6981 53.0621 10.1724C53.0621 9.6431 52.9824 7.45725 51.2467 7.45725H31.8536V24.1866C31.8536 31.5655 20.2276 33 15.8519 33C9.81083 33 0.000203222 30.9696 0.000203222 24.7141V13.1835" fill="white"/>
</svg>
